<svg width="300" height="140" viewBox="0 0 300 140" fill="none" xmlns="http://www.w3.org/2000/svg"><style>.lang-name { font: 600 12px "Segoe UI", Ubuntu, Sans-Serif; fill: #c9d1d9; } .lang-percent { font: 400 12px "Segoe UI", Ubuntu, Sans-Serif; fill: #8b949e; }</style><rect width="300" height="140" fill="#0d1117" rx="4.5" stroke="#30363d"/><text x="15" y="25" fill="#58a6ff" font-family="sans-serif" font-weight="bold" font-size="14">Top Languages</text><circle cx="20" cy="41" r="5" fill="#f34b7d"/><text x="35" y="45" class="lang-name">C++</text><text x="125" y="45" class="lang-percent">63.0%</text><rect x="175" y="37" width="110" height="8" fill="#21262d" rx="4"/><rect x="175" y="37" width="69.34019698147927" height="8" fill="#f34b7d" rx="4"/><circle cx="20" cy="61" r="5" fill="#3178c6"/><text x="35" y="65" class="lang-name">TypeScript</text><text x="125" y="65" class="lang-percent">24.4%</text><rect x="175" y="57" width="110" height="8" fill="#21262d" rx="4"/><rect x="175" y="57" width="26.894204890626042" height="8" fill="#3178c6" rx="4"/><circle cx="20" cy="81" r="5" fill="#dea584"/><text x="35" y="85" class="lang-name">Rust</text><text x="125" y="85" class="lang-percent">5.8%</text><rect x="175" y="77" width="110" height="8" fill="#21262d" rx="4"/><rect x="175" y="77" width="6.388295382385768" height="8" fill="#dea584" rx="4"/><circle cx="20" cy="101" r="5" fill="#3572A5"/><text x="35" y="105" class="lang-name">Python</text><text x="125" y="105" class="lang-percent">4.2%</text><rect x="175" y="97" width="110" height="8" fill="#21262d" rx="4"/><rect x="175" y="97" width="4.596018093498403" height="8" fill="#3572A5" rx="4"/><circle cx="20" cy="121" r="5" fill="#663399"/><text x="35" y="125" class="lang-name">CSS</text><text x="125" y="125" class="lang-percent">2.5%</text><rect x="175" y="117" width="110" height="8" fill="#21262d" rx="4"/><rect x="175" y="117" width="2.781284652010527" height="8" fill="#663399" rx="4"/></svg>